HIERARCHY
ROOT Hips
{
	OFFSET -0.001795 -0.223333 0.028219
	CHANNELS 6 Xposition Yposition Zposition Zrotation Yrotation Xrotation 
	JOINT LeftUpLeg
	{
		OFFSET 0.069520 -0.091406 -0.006815
		CHANNELS 3 Zrotation Yrotation Xrotation
		JOINT LeftLeg
		{
			OFFSET 0.034277 -0.375199 -0.004496
			CHANNELS 3 Zrotation Yrotation Xrotation
			JOINT LeftFoot
			{
				OFFSET -0.013596 -0.397961 -0.043693
				CHANNELS 3 Zrotation Yrotation Xrotation
				JOINT LeftToe
				{
					OFFSET 0.026358 -0.055791 0.119288
					CHANNELS 3 Zrotation Yrotation Xrotation
					End Site
					{
						OFFSET 0.000000 0.000000 0.000000
					}
				}
			}
		}
	}
	JOINT RightUpLeg
	{
		OFFSET -0.067670 -0.090522 -0.004320
		CHANNELS 3 Zrotation Yrotation Xrotation
		JOINT RightLeg
		{
			OFFSET -0.038290 -0.382569 -0.008850
			CHANNELS 3 Zrotation Yrotation Xrotation
			JOINT RightFoot
			{
				OFFSET 0.015774 -0.398415 -0.042312
				CHANNELS 3 Zrotation Yrotation Xrotation
				JOINT RightToe
				{
					OFFSET -0.025372 -0.048144 0.123348
					CHANNELS 3 Zrotation Yrotation Xrotation
					End Site
					{
						OFFSET 0.000000 0.000000 0.000000
					}
				}
			}
		}
	}
	JOINT Spine
	{
		OFFSET -0.002533 0.108963 -0.026696
		CHANNELS 3 Zrotation Yrotation Xrotation
		JOINT Spine1
		{
			OFFSET 0.005487 0.135180 0.001092
			CHANNELS 3 Zrotation Yrotation Xrotation
			JOINT Spine2
			{
				OFFSET 0.001457 0.052922 0.025425
				CHANNELS 3 Zrotation Yrotation Xrotation
				JOINT Neck
				{
					OFFSET -0.002778 0.213870 -0.042857
					CHANNELS 3 Zrotation Yrotation Xrotation
					JOINT Head
					{
						OFFSET 0.005152 0.064970 0.051349
						CHANNELS 3 Zrotation Yrotation Xrotation
						End Site
						{
							OFFSET 0.000000 0.000000 0.000000
						}
					}
				}
				JOINT LeftShoulder
				{
					OFFSET 0.078845 0.121749 -0.034090
					CHANNELS 3 Zrotation Yrotation Xrotation
					JOINT LeftArm
					{
						OFFSET 0.090977 0.030469 -0.008868
						CHANNELS 3 Zrotation Yrotation Xrotation
						JOINT LeftForeArm
						{
							OFFSET 0.259612 -0.012772 -0.027456
							CHANNELS 3 Zrotation Yrotation Xrotation
							JOINT LeftHand
							{
								OFFSET 0.249234 0.008986 -0.001171
								CHANNELS 3 Zrotation Yrotation Xrotation
								End Site
								{
									OFFSET 0.000000 0.000000 0.000000
								}
							}
						}
					}
				}
				JOINT RightShoulder
				{
					OFFSET -0.081759 0.118833 -0.038615
					CHANNELS 3 Zrotation Yrotation Xrotation
					JOINT RightArm
					{
						OFFSET -0.096012 0.032551 -0.009143
						CHANNELS 3 Zrotation Yrotation Xrotation
						JOINT RightForeArm
						{
							OFFSET -0.253742 -0.013329 -0.021401
							CHANNELS 3 Zrotation Yrotation Xrotation
							JOINT RightHand
							{
								OFFSET -0.255298 0.007772 -0.005559
								CHANNELS 3 Zrotation Yrotation Xrotation
								End Site
								{
									OFFSET 0.000000 0.000000 0.000000
								}
							}
						}
					}
				}
			}
		}
	}
}
MOTION
Frames: 8
Frame Time: 0.050000
0.000000 0.918757 0.000000 -0.795244 -4.400958 1.557468 7.013609 -0.592748 -32.926925 -3.381925 0.450000 14.083116 -0.961428 6.523050 26.434494 0.000000 0.000000 0.000000 0.100601 -1.071620 11.483969 0.914492 1.082567 25.718063 -2.064240 -6.698929 3.861613 0.000000 0.000000 0.000000 -10.306651 1.645592 24.275924 4.927578 -0.640460 -24.037325 4.239118 5.411866 26.213981 -3.441541 4.089495 -27.903875 0.000000 0.000000 0.000000 4.827457 -17.721978 5.490082 8.829354 -50.502448 -7.744943 82.774999 -49.241768 -42.258675 0.000000 0.000000 0.000000 -15.699735 25.257849 4.967607 3.340356 37.944200 -1.500133 -91.544961 48.266404 -44.447207 0.000000 0.000000 0.000000 
0.001122 0.911357 0.050738 -1.680670 -2.329282 1.896845 6.828527 -0.915728 -34.385990 -3.046779 0.303405 19.116922 -0.833948 6.668784 24.839732 0.000000 0.000000 0.000000 -0.475933 -0.685320 7.492453 3.897195 0.186651 38.405400 -1.408600 -6.375483 7.200981 0.000000 0.000000 0.000000 -12.276098 2.160119 26.695826 7.311284 -1.315046 -22.533952 3.704972 7.498998 23.109361 -1.667105 3.514688 -25.111511 0.000000 0.000000 0.000000 5.050080 -17.725047 5.562534 13.430388 -54.525635 -11.244412 77.679082 -48.786775 -39.055736 0.000000 0.000000 0.000000 -15.808251 24.037864 4.580895 0.334892 37.374442 -1.748943 -88.284633 50.408311 -43.145473 0.000000 0.000000 0.000000 
0.001194 0.908007 0.095004 -1.850527 -0.866433 0.798748 7.079369 -1.011251 -34.237651 -4.368411 0.678034 27.522148 -0.604664 4.694575 15.515124 0.000000 0.000000 0.000000 -1.411964 -0.282890 3.658061 5.710317 -0.982533 47.594108 -2.383773 -7.609105 4.688151 0.000000 0.000000 0.000000 -11.491445 1.988187 29.602723 4.836964 -0.615232 -23.426015 3.486979 8.433630 24.183569 -1.246301 3.620289 -25.749195 0.000000 0.000000 0.000000 3.615257 -21.908731 6.827970 21.173129 -53.885871 -14.786497 69.486739 -46.100470 -32.471051 0.000000 0.000000 0.000000 -19.169496 24.409037 3.553529 1.111842 37.179043 -1.237436 -80.904400 47.239499 -34.889817 0.000000 0.000000 0.000000 
0.000290 0.909721 0.131507 -2.518786 -0.662697 0.789428 8.085142 -0.716998 -32.997018 -4.689964 0.787533 28.780792 -0.898577 4.013964 14.696750 0.000000 0.000000 0.000000 -1.117513 0.285906 -2.825999 5.989989 -1.287480 53.882252 -3.624707 -10.411086 4.987944 0.000000 0.000000 0.000000 -11.742535 2.169810 31.684868 4.416478 -0.509081 -23.455778 3.671054 9.048689 23.699994 -0.023676 3.024675 -25.073814 0.000000 0.000000 0.000000 4.576375 -23.231008 7.109957 22.511708 -54.373086 -15.768001 66.512733 -43.309105 -28.920243 0.000000 0.000000 0.000000 -20.524155 27.913563 3.721983 -1.093115 36.288283 -1.546565 -68.020012 43.761413 -25.356808 0.000000 0.000000 0.000000 
-0.001858 0.916010 0.163799 -3.115651 0.202941 0.678795 8.539984 -0.645709 -30.774162 -4.508769 0.632217 29.404705 -1.170615 2.669605 11.762309 0.000000 0.000000 0.000000 -1.870871 0.818796 -9.147048 7.693867 -2.778896 55.600502 -4.450944 -12.137202 4.738918 0.000000 0.000000 0.000000 -12.114380 2.345803 34.331204 3.931437 -0.305403 -24.656134 3.454295 8.936776 24.412008 0.186280 3.028627 -26.510996 0.000000 0.000000 0.000000 4.418841 -22.976351 7.048901 23.935465 -57.045271 -17.793370 67.588710 -42.288603 -28.696476 0.000000 0.000000 0.000000 -22.968805 28.544199 3.031708 -0.655436 37.304319 -1.345197 -59.599400 39.375758 -18.864261 0.000000 0.000000 0.000000 
-0.004535 0.924626 0.193706 -4.071112 0.129245 0.731967 9.407587 -0.390397 -28.785240 -4.092146 0.475864 28.695206 -1.150302 3.142623 12.996981 0.000000 0.000000 0.000000 -2.695113 1.187568 -14.464513 8.233205 -2.974574 52.367959 -5.217929 -13.552533 3.116829 0.000000 0.000000 0.000000 -11.422586 2.227072 36.154100 3.649732 -0.124169 -26.750841 3.887765 8.147410 25.628589 -0.116315 3.184320 -28.860958 0.000000 0.000000 0.000000 4.422423 -22.433297 6.889952 22.534431 -58.528411 -17.620524 71.661866 -41.230242 -29.903831 0.000000 0.000000 0.000000 -25.372739 29.298324 2.429281 -1.732492 37.622869 -1.635105 -53.913970 35.271537 -14.834649 0.000000 0.000000 0.000000 
-0.007392 0.929630 0.223255 -4.845289 -0.328110 1.086470 10.431615 -0.105965 -26.779624 -3.705787 0.377358 28.274289 -1.435180 2.280518 12.024428 0.000000 0.000000 0.000000 -4.745324 1.310291 -19.683257 8.802092 -2.903054 46.429544 -5.939346 -15.182504 3.138510 0.000000 0.000000 0.000000 -10.992656 2.232064 37.618487 3.818310 -0.163529 -26.722434 4.259004 8.233793 23.975290 0.310622 2.881453 -28.380073 0.000000 0.000000 0.000000 3.287021 -22.493640 7.040465 20.829720 -60.425002 -17.397188 76.980942 -42.263481 -33.319182 0.000000 0.000000 0.000000 -25.834834 28.289676 2.360448 -3.736711 39.957151 -2.264471 -51.764481 31.619954 -12.438308 0.000000 0.000000 0.000000 
-0.011435 0.932808 0.253335 -5.180024 -0.005717 0.908095 10.967752 -0.023279 -24.650944 -3.820683 0.387365 27.933525 -1.160211 2.693171 11.805169 0.000000 0.000000 0.000000 -7.770648 0.947305 -22.699084 9.213365 -2.729926 37.498654 -6.313244 -16.239726 5.782713 0.000000 0.000000 0.000000 -10.451338 2.009237 38.220198 4.583573 -0.285302 -27.381657 4.213401 7.758458 24.200350 -0.350272 3.201693 -28.820726 0.000000 0.000000 0.000000 1.529441 -22.682855 7.263589 22.678157 -62.540152 -19.251169 78.993179 -43.618969 -35.343673 0.000000 0.000000 0.000000 -26.830300 26.796838 1.929348 -5.130397 40.437755 -2.696869 -52.592886 28.296783 -11.134991 0.000000 0.000000 0.000000 
